<svg width="160" height="30" viewBox="0 0 160 30" fill="none" xmlns="http://www.w3.org/2000/svg">
<g clip-path="url(#clip0_1_18)">
<path d="M0 15C0 6.71572 6.69216 0 14.9474 0H34.5658C42.821 0 49.5132 6.71572 49.5132 15V30H14.9474C6.69216 30 0 23.2843 0 15Z" fill="#4845D2"/>
<ellipse cx="14.3525" cy="15" rx="9.36035" ry="9.375" fill="white"/>
<ellipse cx="33.6973" cy="15" rx="9.36035" ry="9.375" fill="white"/>
<path d="M14.6646 19.375C17.2493 19.375 19.3447 17.2763 19.3447 14.6875C19.3447 12.0987 17.2493 10 14.6646 10C12.0798 10 9.98438 12.0987 9.98438 14.6875C9.98438 17.2763 12.0798 19.375 14.6646 19.375Z" fill="black"/>
<path d="M35.5 19.6875C38.0798 19.6875 40.1711 17.5888 40.1711 15C40.1711 12.4112 38.0798 10.3125 35.5 10.3125C32.9203 10.3125 30.8289 12.4112 30.8289 15C30.8289 17.5888 32.9203 19.6875 35.5 19.6875Z" fill="black"/>
<path d="M13.079 14.0625C13.5949 14.0625 14.0132 13.6428 14.0132 13.125C14.0132 12.6072 13.5949 12.1875 13.079 12.1875C12.563 12.1875 12.1447 12.6072 12.1447 13.125C12.1447 13.6428 12.563 14.0625 13.079 14.0625Z" fill="white"/>
<path d="M33.6316 14.0625C34.1475 14.0625 34.5658 13.6428 34.5658 13.125C34.5658 12.6072 34.1475 12.1875 33.6316 12.1875C33.1156 12.1875 32.6974 12.6072 32.6974 13.125C32.6974 13.6428 33.1156 14.0625 33.6316 14.0625Z" fill="white"/>
<path d="M64.7038 5.85H67.7438V28.25H64.7038L61.1838 14.554V28.25H58.1438V8.826H57.6638L57.9838 5.85H61.3438L64.8958 20.09L64.7038 5.85ZM74.295 15.258C74.295 15.1513 74.2417 15.098 74.135 15.098H72.215C72.1083 15.098 72.055 15.1513 72.055 15.258V25.242C72.055 25.3487 72.1083 25.402 72.215 25.402H74.135C74.2417 25.402 74.295 25.3593 74.295 25.274V15.258ZM69.015 25.402V15.098C69.015 14.202 69.2923 13.4873 69.847 12.954C70.4017 12.3993 71.127 12.122 72.023 12.122H74.327C75.223 12.122 75.9483 12.3993 76.503 12.954C77.0577 13.4873 77.335 14.202 77.335 15.098V25.402C77.335 26.298 77.0577 27.0233 76.503 27.578C75.9483 28.1113 75.223 28.378 74.327 28.378H72.023C71.127 28.378 70.4017 28.1113 69.847 27.578C69.2923 27.0233 69.015 26.298 69.015 25.402ZM77.9763 12.25H80.7923L82.5843 22.586L84.3763 12.25H87.1923L84.1203 28.25H81.0483L77.9763 12.25ZM87.9838 25.402V15.098C87.9838 14.202 88.2611 13.4873 88.8158 12.954C89.3704 12.3993 90.0958 12.122 90.9918 12.122H92.9758C93.8718 12.122 94.5971 12.3993 95.1518 12.954C95.7064 13.4873 95.9838 14.202 95.9838 15.098V19.034H92.9438V15.258C92.9438 15.1513 92.8904 15.098 92.7838 15.098H91.1838C91.0771 15.098 91.0238 15.1513 91.0238 15.258V19.034H95.9838V22.01H91.0238V25.242C91.0238 25.3487 91.0771 25.402 91.1838 25.402H92.7838C92.8904 25.402 92.9438 25.3593 92.9438 25.274V23.514H95.9838V25.402C95.9838 26.298 95.7064 27.0233 95.1518 27.578C94.5971 28.1113 93.8718 28.378 92.9758 28.378H90.9918C90.0958 28.378 89.3704 28.1113 88.8158 27.578C88.2611 27.0233 87.9838 26.298 87.9838 25.402ZM100.625 5.85L100.657 25.274H101.457L101.777 28.25H97.617L97.585 8.826H96.945L97.265 5.85H100.625ZM111.054 25.274C111.054 26.17 110.776 26.8953 110.222 27.45C109.667 27.9833 108.942 28.25 108.046 28.25H105.742C104.846 28.25 104.12 27.9833 103.566 27.45C103.011 26.8953 102.734 26.17 102.734 25.274V8.826C102.734 7.93 103.011 7.21533 103.566 6.682C104.12 6.12733 104.846 5.85 105.742 5.85H108.046C108.942 5.85 109.667 6.12733 110.222 6.682C110.776 7.21533 111.054 7.93 111.054 8.826V13.946H108.014V8.986C108.014 8.87933 107.96 8.826 107.854 8.826H105.934C105.827 8.826 105.774 8.87933 105.774 8.986V25.114C105.774 25.2207 105.827 25.274 105.934 25.274H107.854C107.96 25.274 108.014 25.2207 108.014 25.114V18.49H106.766L107.022 15.514H111.054V25.274ZM112.328 25.402V15.098C112.328 14.202 112.605 13.4873 113.16 12.954C113.714 12.3993 114.44 12.122 115.336 12.122H117.32C118.216 12.122 118.941 12.3993 119.496 12.954C120.05 13.4873 120.328 14.202 120.328 15.098V19.034H117.288V15.258C117.288 15.1513 117.234 15.098 117.128 15.098H115.528C115.421 15.098 115.368 15.1513 115.368 15.258V19.034H120.328V22.01H115.368V25.242C115.368 25.3487 115.421 25.402 115.528 25.402H117.128C117.234 25.402 117.288 25.3593 117.288 25.274V23.514H120.328V25.402C120.328 26.298 120.05 27.0233 119.496 27.578C118.941 28.1113 118.216 28.378 117.32 28.378H115.336C114.44 28.378 113.714 28.1113 113.16 27.578C112.605 27.0233 112.328 26.298 112.328 25.402ZM121.609 25.402V15.098C121.609 14.202 121.886 13.4873 122.441 12.954C122.995 12.3993 123.721 12.122 124.617 12.122H126.601C127.497 12.122 128.222 12.3993 128.777 12.954C129.331 13.4873 129.609 14.202 129.609 15.098V19.034H126.569V15.258C126.569 15.1513 126.515 15.098 126.409 15.098H124.809C124.702 15.098 124.649 15.1513 124.649 15.258V19.034H129.609V22.01H124.649V25.242C124.649 25.3487 124.702 25.402 124.809 25.402H126.409C126.515 25.402 126.569 25.3593 126.569 25.274V23.514H129.609V25.402C129.609 26.298 129.331 27.0233 128.777 27.578C128.222 28.1113 127.497 28.378 126.601 28.378H124.617C123.721 28.378 122.995 28.1113 122.441 27.578C121.886 27.0233 121.609 26.298 121.609 25.402ZM131.026 28.25V8.826H130.258L130.578 5.85H134.066V17.466L136.626 12.25H139.602L136.21 19.13L139.922 28.25H136.946L134.066 21.178V28.25H131.026Z" fill="white"/>
</g>
<defs>
<clipPath id="clip0_1_18">
<rect width="159.75" height="30" fill="white"/>
</clipPath>
</defs>
</svg>
